<svg width="171" height="108" viewBox="0 0 171 108" fill="none" xmlns="http://www.w3.org/2000/svg">
<g filter="url(#filter0_dddd_1_36)">
<path d="M46.0083 6.59583L53.0161 9.73574L59.5936 4.322L64.6383 8.94778L72.7616 4.78203L75.4344 10.5189L84.4453 7.93864L84.5297 14.3219L93.6982 13.5361L91.1874 20.0486L99.7708 21.121L94.8682 27.2351L102.171 30.0787L95.2738 35.2991L100.704 39.6837L92.3714 43.5874L95.4899 49.1577L86.3961 51.4286L86.9498 57.7333L77.832 58.1873L75.7761 64.7156L67.3729 63.316L62.8739 69.5391L55.8661 66.3992L49.2885 71.813L44.2439 67.1872L36.1206 71.3529L33.4478 65.616L24.4369 68.1963L24.3525 61.8131L15.184 62.5988L17.6947 56.0864L9.11139 55.014L14.014 48.8999L6.71116 46.0562L13.6084 40.8358L8.17773 36.4513L16.5108 32.5475L13.3923 26.9772L22.4861 24.7064L21.9324 18.4017L31.0502 17.9477L33.1061 11.4193L41.5093 12.819L46.0083 6.59583Z" fill="#FFF189"/>
<path d="M46.6217 5.22735L52.78 7.98627L58.6406 3.16349L59.6472 2.3357L60.6072 3.21687L64.8816 7.1367L72.0773 3.44746L73.4629 2.73648L74.1213 4.14837L76.252 8.72349L84.0325 6.49617L85.9189 5.95632L85.9453 7.9187L86.0083 12.689L93.5701 12.0418L95.9609 11.837L95.0979 14.0761L93.2775 18.7979L99.9565 19.6329L102.62 19.9657L100.941 22.0593L97.3158 26.5794L102.716 28.6812L105.216 29.6551L103.076 31.2749L97.7081 35.3368L101.647 38.5166L103.514 40.0243L101.341 41.0422L94.4682 44.2617L96.799 48.4253L97.7574 50.138L95.8535 50.6128L88.0015 52.5731L88.444 57.6016L88.5801 59.1545L87.0246 59.2316L78.949 59.6332L77.2065 65.1663L76.8157 66.4094L75.5298 66.1949L68.0427 64.9476L64.0895 70.4179L63.3749 71.4071L62.2604 70.908L56.1007 68.1474L50.2413 72.9709L49.2359 73.7994L48.275 72.9185L43.9984 68.9982L36.8049 72.6879L35.4192 73.3989L34.7606 71.986L32.6287 67.4102L24.8494 69.6382L22.9632 70.179L22.9368 68.2166L22.8736 63.4454L15.312 64.0935L12.9213 64.2984L13.7843 62.0593L15.6044 57.3365L8.92562 56.5025L6.26241 56.1697L7.94081 54.076L11.5654 49.5562L6.16649 47.4542L3.66613 46.4802L5.80614 44.8604L11.1726 40.7969L7.23544 37.6187L5.36853 36.1111L7.54141 35.0931L14.4137 31.8727L12.0831 27.71L11.1248 25.9974L13.0284 25.5216L20.8792 23.5606L20.4379 18.5328L20.3021 16.9809L21.8576 16.9038L29.9329 16.5012L31.6757 10.9691L32.0674 9.72569L33.3521 9.93954L40.838 11.1861L44.7927 5.71744L45.5083 4.72801L46.6217 5.22735Z" stroke="black" stroke-width="3"/>
</g>
<g filter="url(#filter1_dddd_1_36)">
<mask id="path-3-outside-1_1_36" maskUnits="userSpaceOnUse" x="60" y="47" width="107" height="57" fill="black">
<rect fill="white" x="60" y="47" width="107" height="57"/>
<path d="M81.232 50.152C85.696 50.152 89.416 51.064 92.392 52.888C95.368 54.712 96.856 56.704 96.856 58.864C96.856 59.488 96.592 60.064 96.064 60.592C95.536 61.12 94.864 61.384 94.048 61.384C93.328 61.384 92.536 61.144 91.672 60.664C90.808 60.136 89.992 59.584 89.224 59.008C88.456 58.432 87.448 57.904 86.2 57.424C84.952 56.944 83.632 56.704 82.24 56.704C80.368 56.704 79.432 57.28 79.432 58.432C79.432 59.248 79.912 59.896 80.872 60.376C81.832 60.856 83.224 61.36 85.048 61.888C86.92 62.416 88.336 62.92 89.296 63.4C92.896 64.792 95.368 66.304 96.712 67.936C98.056 69.52 98.728 71.632 98.728 74.272C98.728 75.568 98.368 76.864 97.648 78.16C96.928 79.408 95.848 80.608 94.408 81.76C92.968 82.864 91 83.776 88.504 84.496C86.056 85.168 83.248 85.504 80.08 85.504C73.888 85.504 69.256 84.088 66.184 81.256C64.696 79.864 63.952 78.424 63.952 76.936C63.952 76.024 64.24 75.304 64.816 74.776C65.44 74.248 66.304 73.984 67.408 73.984C68.512 73.984 70.192 74.536 72.448 75.64C74.704 76.696 76.792 77.224 78.712 77.224C81.352 77.224 82.672 76.576 82.672 75.28C82.672 74.608 81.976 74.08 80.584 73.696C79.192 73.264 77.368 72.76 75.112 72.184C72.856 71.608 71.056 70.888 69.712 70.024C67.6 69.112 66.112 67.984 65.248 66.64C64.432 65.248 64.024 63.568 64.024 61.6C64.024 58.24 65.608 55.504 68.776 53.392C71.992 51.232 76.144 50.152 81.232 50.152ZM111.582 50.152C116.046 50.152 119.766 51.064 122.742 52.888C125.718 54.712 127.206 56.704 127.206 58.864C127.206 59.488 126.942 60.064 126.414 60.592C125.886 61.12 125.214 61.384 124.398 61.384C123.678 61.384 122.886 61.144 122.022 60.664C121.158 60.136 120.342 59.584 119.574 59.008C118.806 58.432 117.798 57.904 116.55 57.424C115.302 56.944 113.982 56.704 112.59 56.704C110.718 56.704 109.782 57.28 109.782 58.432C109.782 59.248 110.262 59.896 111.222 60.376C112.182 60.856 113.574 61.36 115.398 61.888C117.27 62.416 118.686 62.92 119.646 63.4C123.246 64.792 125.718 66.304 127.062 67.936C128.406 69.52 129.078 71.632 129.078 74.272C129.078 75.568 128.718 76.864 127.998 78.16C127.278 79.408 126.198 80.608 124.758 81.76C123.318 82.864 121.35 83.776 118.854 84.496C116.406 85.168 113.598 85.504 110.43 85.504C104.238 85.504 99.6057 84.088 96.5337 81.256C95.0457 79.864 94.3017 78.424 94.3017 76.936C94.3017 76.024 94.5897 75.304 95.1657 74.776C95.7897 74.248 96.6537 73.984 97.7577 73.984C98.8617 73.984 100.542 74.536 102.798 75.64C105.054 76.696 107.142 77.224 109.062 77.224C111.702 77.224 113.022 76.576 113.022 75.28C113.022 74.608 112.326 74.08 110.934 73.696C109.542 73.264 107.718 72.76 105.462 72.184C103.206 71.608 101.406 70.888 100.062 70.024C97.9497 69.112 96.4617 67.984 95.5977 66.64C94.7817 65.248 94.3737 63.568 94.3737 61.6C94.3737 58.24 95.9577 55.504 99.1257 53.392C102.342 51.232 106.494 50.152 111.582 50.152ZM138.115 85.432C134.323 85.432 131.179 83.896 128.683 80.824C126.187 77.704 124.939 73.432 124.939 68.008C124.939 62.536 126.163 58.192 128.611 54.976C131.059 51.76 134.203 50.152 138.043 50.152C141.931 50.152 145.531 51.496 148.843 54.184C150.091 51.832 152.155 50.656 155.035 50.656C157.627 50.656 159.643 51.232 161.083 52.384C162.571 53.536 163.315 55.6 163.315 58.576V71.752C163.315 76.408 163.003 80.416 162.379 83.776C161.803 87.088 160.771 90.016 159.283 92.56C157.843 95.104 155.827 97 153.235 98.248C150.691 99.496 147.547 100.12 143.803 100.12C141.211 100.12 138.811 99.76 136.603 99.04C134.395 98.32 132.643 97.432 131.347 96.376C130.051 95.32 129.043 94.264 128.323 93.208C127.603 92.152 127.243 91.24 127.243 90.472C127.243 89.56 127.507 88.792 128.035 88.168C128.563 87.544 129.307 87.232 130.267 87.232C130.843 87.232 132.283 87.856 134.587 89.104C136.939 90.352 138.835 90.976 140.275 90.976C145.171 90.976 147.619 88.456 147.619 83.416C144.835 84.76 141.667 85.432 138.115 85.432ZM147.907 74.632L147.835 61.024C147.019 59.68 145.987 59.008 144.739 59.008C143.875 59.008 143.107 59.464 142.435 60.376C141.811 61.288 141.331 62.416 140.995 63.76C140.707 65.104 140.563 66.52 140.563 68.008C140.563 70.264 140.923 72.256 141.643 73.984C142.363 75.664 143.371 76.504 144.667 76.504C145.963 76.504 147.043 75.88 147.907 74.632Z"/>
</mask>
<path d="M81.232 50.152C85.696 50.152 89.416 51.064 92.392 52.888C95.368 54.712 96.856 56.704 96.856 58.864C96.856 59.488 96.592 60.064 96.064 60.592C95.536 61.12 94.864 61.384 94.048 61.384C93.328 61.384 92.536 61.144 91.672 60.664C90.808 60.136 89.992 59.584 89.224 59.008C88.456 58.432 87.448 57.904 86.2 57.424C84.952 56.944 83.632 56.704 82.24 56.704C80.368 56.704 79.432 57.28 79.432 58.432C79.432 59.248 79.912 59.896 80.872 60.376C81.832 60.856 83.224 61.36 85.048 61.888C86.92 62.416 88.336 62.92 89.296 63.4C92.896 64.792 95.368 66.304 96.712 67.936C98.056 69.52 98.728 71.632 98.728 74.272C98.728 75.568 98.368 76.864 97.648 78.16C96.928 79.408 95.848 80.608 94.408 81.76C92.968 82.864 91 83.776 88.504 84.496C86.056 85.168 83.248 85.504 80.08 85.504C73.888 85.504 69.256 84.088 66.184 81.256C64.696 79.864 63.952 78.424 63.952 76.936C63.952 76.024 64.24 75.304 64.816 74.776C65.44 74.248 66.304 73.984 67.408 73.984C68.512 73.984 70.192 74.536 72.448 75.64C74.704 76.696 76.792 77.224 78.712 77.224C81.352 77.224 82.672 76.576 82.672 75.28C82.672 74.608 81.976 74.08 80.584 73.696C79.192 73.264 77.368 72.76 75.112 72.184C72.856 71.608 71.056 70.888 69.712 70.024C67.6 69.112 66.112 67.984 65.248 66.64C64.432 65.248 64.024 63.568 64.024 61.6C64.024 58.24 65.608 55.504 68.776 53.392C71.992 51.232 76.144 50.152 81.232 50.152ZM111.582 50.152C116.046 50.152 119.766 51.064 122.742 52.888C125.718 54.712 127.206 56.704 127.206 58.864C127.206 59.488 126.942 60.064 126.414 60.592C125.886 61.12 125.214 61.384 124.398 61.384C123.678 61.384 122.886 61.144 122.022 60.664C121.158 60.136 120.342 59.584 119.574 59.008C118.806 58.432 117.798 57.904 116.55 57.424C115.302 56.944 113.982 56.704 112.59 56.704C110.718 56.704 109.782 57.28 109.782 58.432C109.782 59.248 110.262 59.896 111.222 60.376C112.182 60.856 113.574 61.36 115.398 61.888C117.27 62.416 118.686 62.92 119.646 63.4C123.246 64.792 125.718 66.304 127.062 67.936C128.406 69.52 129.078 71.632 129.078 74.272C129.078 75.568 128.718 76.864 127.998 78.16C127.278 79.408 126.198 80.608 124.758 81.76C123.318 82.864 121.35 83.776 118.854 84.496C116.406 85.168 113.598 85.504 110.43 85.504C104.238 85.504 99.6057 84.088 96.5337 81.256C95.0457 79.864 94.3017 78.424 94.3017 76.936C94.3017 76.024 94.5897 75.304 95.1657 74.776C95.7897 74.248 96.6537 73.984 97.7577 73.984C98.8617 73.984 100.542 74.536 102.798 75.64C105.054 76.696 107.142 77.224 109.062 77.224C111.702 77.224 113.022 76.576 113.022 75.28C113.022 74.608 112.326 74.08 110.934 73.696C109.542 73.264 107.718 72.76 105.462 72.184C103.206 71.608 101.406 70.888 100.062 70.024C97.9497 69.112 96.4617 67.984 95.5977 66.64C94.7817 65.248 94.3737 63.568 94.3737 61.6C94.3737 58.24 95.9577 55.504 99.1257 53.392C102.342 51.232 106.494 50.152 111.582 50.152ZM138.115 85.432C134.323 85.432 131.179 83.896 128.683 80.824C126.187 77.704 124.939 73.432 124.939 68.008C124.939 62.536 126.163 58.192 128.611 54.976C131.059 51.76 134.203 50.152 138.043 50.152C141.931 50.152 145.531 51.496 148.843 54.184C150.091 51.832 152.155 50.656 155.035 50.656C157.627 50.656 159.643 51.232 161.083 52.384C162.571 53.536 163.315 55.6 163.315 58.576V71.752C163.315 76.408 163.003 80.416 162.379 83.776C161.803 87.088 160.771 90.016 159.283 92.56C157.843 95.104 155.827 97 153.235 98.248C150.691 99.496 147.547 100.12 143.803 100.12C141.211 100.12 138.811 99.76 136.603 99.04C134.395 98.32 132.643 97.432 131.347 96.376C130.051 95.32 129.043 94.264 128.323 93.208C127.603 92.152 127.243 91.24 127.243 90.472C127.243 89.56 127.507 88.792 128.035 88.168C128.563 87.544 129.307 87.232 130.267 87.232C130.843 87.232 132.283 87.856 134.587 89.104C136.939 90.352 138.835 90.976 140.275 90.976C145.171 90.976 147.619 88.456 147.619 83.416C144.835 84.76 141.667 85.432 138.115 85.432ZM147.907 74.632L147.835 61.024C147.019 59.68 145.987 59.008 144.739 59.008C143.875 59.008 143.107 59.464 142.435 60.376C141.811 61.288 141.331 62.416 140.995 63.76C140.707 65.104 140.563 66.52 140.563 68.008C140.563 70.264 140.923 72.256 141.643 73.984C142.363 75.664 143.371 76.504 144.667 76.504C145.963 76.504 147.043 75.88 147.907 74.632Z" fill="#FF97C0"/>
<path d="M92.392 52.888L90.8243 55.4458L90.8243 55.4458L92.392 52.888ZM91.672 60.664L90.1077 63.2238L90.1607 63.2563L90.2151 63.2865L91.672 60.664ZM89.224 59.008L91.024 56.608L91.024 56.608L89.224 59.008ZM86.2 57.424L87.2769 54.624L87.2769 54.624L86.2 57.424ZM80.872 60.376L79.5304 63.0593L79.5304 63.0593L80.872 60.376ZM85.048 61.888L84.2138 64.7697L84.2237 64.7726L84.2336 64.7753L85.048 61.888ZM89.296 63.4L87.9544 66.0833L88.0815 66.1468L88.2141 66.1981L89.296 63.4ZM96.712 67.936L94.3962 69.8431L94.4102 69.8601L94.4245 69.8769L96.712 67.936ZM97.648 78.16L100.247 79.6592L100.259 79.6381L100.27 79.6169L97.648 78.16ZM94.408 81.76L96.2333 84.1408L96.2579 84.122L96.2821 84.1026L94.408 81.76ZM88.504 84.496L89.2982 87.389L89.3169 87.3838L89.3355 87.3785L88.504 84.496ZM66.184 81.256L64.1345 83.4468L64.1425 83.4543L64.1506 83.4617L66.184 81.256ZM64.816 74.776L62.8782 72.4858L62.8327 72.5243L62.7888 72.5645L64.816 74.776ZM72.448 75.64L71.1293 78.3346L71.1527 78.3461L71.1762 78.3571L72.448 75.64ZM80.584 73.696L79.6948 76.5612L79.7403 76.5753L79.7862 76.588L80.584 73.696ZM75.112 72.184L74.3699 75.0908L74.3699 75.0908L75.112 72.184ZM69.712 70.024L71.3343 67.5005L71.1273 67.3674L70.9013 67.2698L69.712 70.024ZM65.248 66.64L62.6599 68.1572L62.6911 68.2104L62.7245 68.2623L65.248 66.64ZM68.776 53.392L70.4401 55.8882L70.4487 55.8824L68.776 53.392ZM81.232 50.152V53.152C85.2948 53.152 88.4349 53.9813 90.8243 55.4458L92.392 52.888L93.9597 50.3302C90.3971 48.1467 86.0972 47.152 81.232 47.152V50.152ZM92.392 52.888L90.8243 55.4458C93.4813 57.0743 93.856 58.2767 93.856 58.864H96.856H99.856C99.856 55.1312 97.2547 52.3497 93.9597 50.3302L92.392 52.888ZM96.856 58.864H93.856C93.856 58.7378 93.8859 58.612 93.9308 58.514C93.9713 58.4257 93.9986 58.4148 93.9427 58.4707L96.064 60.592L98.1853 62.7133C99.1574 61.7412 99.856 60.4369 99.856 58.864H96.856ZM96.064 60.592L93.9427 58.4707C93.9481 58.4652 93.9633 58.4513 93.9885 58.4347C94.0139 58.4179 94.0411 58.4039 94.067 58.3937C94.0794 58.3889 94.0896 58.3856 94.0973 58.3835C94.1049 58.3814 94.1089 58.3806 94.1089 58.3806C94.1089 58.3806 94.1042 58.3815 94.0943 58.3823C94.0844 58.3831 94.0691 58.384 94.048 58.384V61.384V64.384C95.5784 64.384 97.0397 63.8589 98.1853 62.7133L96.064 60.592ZM94.048 61.384V58.384C93.9927 58.384 93.7057 58.362 93.1289 58.0415L91.672 60.664L90.2151 63.2865C91.3663 63.926 92.6633 64.384 94.048 64.384V61.384ZM91.672 60.664L93.2363 58.1042C92.449 57.623 91.712 57.124 91.024 56.608L89.224 59.008L87.424 61.408C88.272 62.044 89.167 62.649 90.1077 63.2238L91.672 60.664ZM89.224 59.008L91.024 56.608C89.9669 55.8152 88.6902 55.1675 87.2769 54.624L86.2 57.424L85.1231 60.224C86.2058 60.6405 86.9451 61.0488 87.424 61.408L89.224 59.008ZM86.2 57.424L87.2769 54.624C85.6712 54.0064 83.9849 53.704 82.24 53.704V56.704V59.704C83.2791 59.704 84.2328 59.8816 85.1231 60.224L86.2 57.424ZM82.24 56.704V53.704C81.0938 53.704 79.7288 53.8628 78.5617 54.581C77.1558 55.4462 76.432 56.8752 76.432 58.432H79.432H82.432C82.432 58.5567 82.404 58.812 82.2454 59.1048C82.0833 59.404 81.8658 59.5928 81.7063 59.691C81.5668 59.7768 81.5077 59.7727 81.6143 59.7508C81.7174 59.7297 81.9167 59.704 82.24 59.704V56.704ZM79.432 58.432H76.432C76.432 60.7519 77.9308 62.2595 79.5304 63.0593L80.872 60.376L82.2136 57.6927C82.0219 57.5968 82.0847 57.585 82.2027 57.7443C82.265 57.8284 82.3279 57.9413 82.3727 58.0778C82.4173 58.214 82.432 58.3374 82.432 58.432H79.432ZM80.872 60.376L79.5304 63.0593C80.7315 63.6598 82.3263 64.2233 84.2138 64.7697L85.048 61.888L85.8822 59.0063C84.1217 58.4967 82.9325 58.0522 82.2136 57.6927L80.872 60.376ZM85.048 61.888L84.2336 64.7753C86.0448 65.2862 87.2473 65.7298 87.9544 66.0833L89.296 63.4L90.6376 60.7167C89.4247 60.1102 87.7952 59.5458 85.8624 59.0007L85.048 61.888ZM89.296 63.4L88.2141 66.1981C91.6707 67.5347 93.5516 68.8175 94.3962 69.8431L96.712 67.936L99.0278 66.0289C97.1844 63.7905 94.1213 62.0493 90.3779 60.6019L89.296 63.4ZM96.712 67.936L94.4245 69.8769C95.1951 70.7852 95.728 72.1455 95.728 74.272H98.728H101.728C101.728 71.1185 100.917 68.2548 98.9995 65.9951L96.712 67.936ZM98.728 74.272H95.728C95.728 74.9887 95.534 75.7878 95.0255 76.7031L97.648 78.16L100.27 79.6169C101.202 77.9402 101.728 76.1473 101.728 74.272H98.728ZM97.648 78.16L95.0494 76.6608C94.5605 77.5084 93.7601 78.4365 92.5339 79.4174L94.408 81.76L96.2821 84.1026C97.9359 82.7795 99.2955 81.3076 100.247 79.6592L97.648 78.16ZM94.408 81.76L92.5827 79.3792C91.5384 80.1798 89.9515 80.9561 87.6725 81.6135L88.504 84.496L89.3355 87.3785C92.0485 86.5959 94.3976 85.5482 96.2333 84.1408L94.408 81.76ZM88.504 84.496L87.7099 81.603C85.5752 82.189 83.043 82.504 80.08 82.504V85.504V88.504C83.453 88.504 86.5368 88.147 89.2982 87.389L88.504 84.496ZM80.08 85.504V82.504C74.2852 82.504 70.5197 81.1727 68.2174 79.0503L66.184 81.256L64.1506 83.4617C67.9923 87.0033 73.4908 88.504 80.08 88.504V85.504ZM66.184 81.256L68.2335 79.0652C67.1203 78.0238 66.952 77.3223 66.952 76.936H63.952H60.952C60.952 79.5257 62.2718 81.7042 64.1345 83.4468L66.184 81.256ZM63.952 76.936H66.952C66.952 76.7956 66.9738 76.7753 66.9534 76.8262C66.9436 76.8508 66.9276 76.8824 66.9046 76.9156C66.8816 76.9488 66.8591 76.9729 66.8432 76.9875L64.816 74.776L62.7888 72.5645C61.4879 73.757 60.952 75.337 60.952 76.936H63.952ZM64.816 74.776L66.7538 77.0662C66.672 77.1354 66.7638 76.984 67.408 76.984V73.984V70.984C65.8442 70.984 64.208 71.3606 62.8782 72.4858L64.816 74.776ZM67.408 73.984V76.984C67.7579 76.984 68.8884 77.238 71.1293 78.3346L72.448 75.64L73.7667 72.9453C71.4956 71.834 69.2661 70.984 67.408 70.984V73.984ZM72.448 75.64L71.1762 78.3571C73.7165 79.5462 76.2421 80.224 78.712 80.224V77.224V74.224C77.3419 74.224 75.6915 73.8458 73.7198 72.9229L72.448 75.64ZM78.712 77.224V80.224C80.1811 80.224 81.7241 80.0593 83.004 79.431C83.6855 79.0964 84.3839 78.5853 84.9064 77.8158C85.4436 77.0247 85.672 76.1404 85.672 75.28H82.672H79.672C79.672 75.0676 79.7354 74.7503 79.9426 74.4452C80.1351 74.1617 80.3385 74.0556 80.36 74.045C80.371 74.0396 80.2623 74.0924 79.96 74.1419C79.6661 74.19 79.2572 74.224 78.712 74.224V77.224ZM82.672 75.28H85.672C85.672 73.7357 84.8139 72.6353 83.9632 71.9899C83.1771 71.3936 82.2367 71.0399 81.3818 70.804L80.584 73.696L79.7862 76.588C80.0312 76.6555 80.1956 76.716 80.2967 76.7602C80.402 76.8062 80.3992 76.8173 80.3368 76.7701C80.2734 76.7219 80.1033 76.5787 79.9464 76.3082C79.7771 76.0163 79.672 75.6581 79.672 75.28H82.672ZM80.584 73.696L81.4732 70.8308C80.0127 70.3776 78.1342 69.8594 75.8542 69.2772L75.112 72.184L74.3699 75.0908C76.6018 75.6606 78.3713 76.1504 79.6948 76.5612L80.584 73.696ZM75.112 72.184L75.8542 69.2772C73.7808 68.7479 72.3142 68.1304 71.3343 67.5005L69.712 70.024L68.0897 72.5475C69.7978 73.6456 71.9312 74.4681 74.3699 75.0908L75.112 72.184ZM69.712 70.024L70.9013 67.2698C69.107 66.495 68.2002 65.6846 67.7715 65.0177L65.248 66.64L62.7245 68.2623C64.0238 70.2834 66.093 71.729 68.5227 72.7782L69.712 70.024ZM65.248 66.64L67.8361 65.1228C67.3433 64.2822 67.024 63.1515 67.024 61.6H64.024H61.024C61.024 63.9845 61.5207 66.2138 62.6599 68.1572L65.248 66.64ZM64.024 61.6H67.024C67.024 59.3898 67.9767 57.5304 70.4401 55.8882L68.776 53.392L67.1119 50.8958C63.2393 53.4776 61.024 57.0902 61.024 61.6H64.024ZM68.776 53.392L70.4487 55.8824C73.0366 54.1442 76.5557 53.152 81.232 53.152V50.152V47.152C75.7323 47.152 70.9474 48.3198 67.1033 50.9016L68.776 53.392ZM122.742 52.888L121.174 55.4458L121.174 55.4458L122.742 52.888ZM122.022 60.664L120.457 63.2238L120.51 63.2563L120.565 63.2865L122.022 60.664ZM119.574 59.008L121.374 56.608L121.374 56.608L119.574 59.008ZM116.55 57.424L117.627 54.624L117.627 54.624L116.55 57.424ZM111.222 60.376L109.88 63.0593L109.88 63.0593L111.222 60.376ZM115.398 61.888L114.564 64.7697L114.573 64.7726L114.583 64.7753L115.398 61.888ZM119.646 63.4L118.304 66.0833L118.431 66.1468L118.564 66.1981L119.646 63.4ZM127.062 67.936L124.746 69.8431L124.76 69.8601L124.774 69.8769L127.062 67.936ZM127.998 78.16L130.596 79.6592L130.608 79.6381L130.62 79.6169L127.998 78.16ZM124.758 81.76L126.583 84.1408L126.608 84.122L126.632 84.1026L124.758 81.76ZM118.854 84.496L119.648 87.389L119.667 87.3838L119.685 87.3785L118.854 84.496ZM96.5337 81.256L94.4842 83.4468L94.4922 83.4543L94.5003 83.4617L96.5337 81.256ZM95.1657 74.776L93.2279 72.4858L93.1824 72.5243L93.1385 72.5645L95.1657 74.776ZM102.798 75.64L101.479 78.3346L101.502 78.3461L101.526 78.3571L102.798 75.64ZM110.934 73.696L110.044 76.5612L110.09 76.5753L110.136 76.588L110.934 73.696ZM105.462 72.184L104.72 75.0908L104.72 75.0908L105.462 72.184ZM100.062 70.024L101.684 67.5005L101.477 67.3674L101.251 67.2698L100.062 70.024ZM95.5977 66.64L93.0096 68.1572L93.0408 68.2104L93.0742 68.2623L95.5977 66.64ZM99.1257 53.392L100.79 55.8882L100.798 55.8824L99.1257 53.392ZM111.582 50.152V53.152C115.645 53.152 118.785 53.9813 121.174 55.4458L122.742 52.888L124.309 50.3302C120.747 48.1467 116.447 47.152 111.582 47.152V50.152ZM122.742 52.888L121.174 55.4458C123.831 57.0743 124.206 58.2767 124.206 58.864H127.206H130.206C130.206 55.1312 127.604 52.3497 124.309 50.3302L122.742 52.888ZM127.206 58.864H124.206C124.206 58.7378 124.236 58.612 124.28 58.514C124.321 58.4257 124.348 58.4148 124.292 58.4707L126.414 60.592L128.535 62.7133C129.507 61.7412 130.206 60.4369 130.206 58.864H127.206ZM126.414 60.592L124.292 58.4707C124.298 58.4652 124.313 58.4513 124.338 58.4347C124.364 58.4179 124.391 58.4039 124.417 58.3937C124.429 58.3889 124.439 58.3856 124.447 58.3835C124.455 58.3814 124.459 58.3806 124.459 58.3806C124.459 58.3806 124.454 58.3815 124.444 58.3823C124.434 58.3831 124.419 58.384 124.398 58.384V61.384V64.384C125.928 64.384 127.389 63.8589 128.535 62.7133L126.414 60.592ZM124.398 61.384V58.384C124.342 58.384 124.055 58.362 123.479 58.0415L122.022 60.664L120.565 63.2865C121.716 63.926 123.013 64.384 124.398 64.384V61.384ZM122.022 60.664L123.586 58.1042C122.799 57.623 122.062 57.124 121.374 56.608L119.574 59.008L117.774 61.408C118.622 62.044 119.517 62.649 120.457 63.2238L122.022 60.664ZM119.574 59.008L121.374 56.608C120.317 55.8152 119.04 55.1675 117.627 54.624L116.55 57.424L115.473 60.224C116.556 60.6405 117.295 61.0488 117.774 61.408L119.574 59.008ZM116.55 57.424L117.627 54.624C116.021 54.0064 114.335 53.704 112.59 53.704V56.704V59.704C113.629 59.704 114.582 59.8816 115.473 60.224L116.55 57.424ZM112.59 56.704V53.704C111.443 53.704 110.078 53.8628 108.911 54.581C107.505 55.4462 106.782 56.8752 106.782 58.432H109.782H112.782C112.782 58.5567 112.754 58.812 112.595 59.1048C112.433 59.404 112.215 59.5928 112.056 59.691C111.916 59.7768 111.857 59.7727 111.964 59.7508C112.067 59.7297 112.266 59.704 112.59 59.704V56.704ZM109.782 58.432H106.782C106.782 60.7519 108.28 62.2595 109.88 63.0593L111.222 60.376L112.563 57.6927C112.372 57.5968 112.434 57.585 112.552 57.7443C112.615 57.8284 112.678 57.9413 112.722 58.0778C112.767 58.214 112.782 58.3374 112.782 58.432H109.782ZM111.222 60.376L109.88 63.0593C111.081 63.6598 112.676 64.2233 114.564 64.7697L115.398 61.888L116.232 59.0063C114.471 58.4967 113.282 58.0522 112.563 57.6927L111.222 60.376ZM115.398 61.888L114.583 64.7753C116.394 65.2862 117.597 65.7298 118.304 66.0833L119.646 63.4L120.987 60.7167C119.774 60.1102 118.145 59.5458 116.212 59.0007L115.398 61.888ZM119.646 63.4L118.564 66.1981C122.02 67.5347 123.901 68.8175 124.746 69.8431L127.062 67.936L129.377 66.0289C127.534 63.7905 124.471 62.0493 120.728 60.6019L119.646 63.4ZM127.062 67.936L124.774 69.8769C125.545 70.7852 126.078 72.1455 126.078 74.272H129.078H132.078C132.078 71.1185 131.267 68.2548 129.349 65.9951L127.062 67.936ZM129.078 74.272H126.078C126.078 74.9887 125.884 75.7878 125.375 76.7031L127.998 78.16L130.62 79.6169C131.552 77.9402 132.078 76.1473 132.078 74.272H129.078ZM127.998 78.16L125.399 76.6608C124.91 77.5084 124.11 78.4365 122.884 79.4174L124.758 81.76L126.632 84.1026C128.286 82.7795 129.645 81.3076 130.596 79.6592L127.998 78.16ZM124.758 81.76L122.932 79.3792C121.888 80.1798 120.301 80.9561 118.022 81.6135L118.854 84.496L119.685 87.3785C122.398 86.5959 124.747 85.5482 126.583 84.1408L124.758 81.76ZM118.854 84.496L118.06 81.603C115.925 82.189 113.393 82.504 110.43 82.504V85.504V88.504C113.803 88.504 116.886 88.147 119.648 87.389L118.854 84.496ZM110.43 85.504V82.504C104.635 82.504 100.869 81.1727 98.5671 79.0503L96.5337 81.256L94.5003 83.4617C98.3419 87.0033 103.84 88.504 110.43 88.504V85.504ZM96.5337 81.256L98.5832 79.0652C97.4699 78.0238 97.3017 77.3223 97.3017 76.936H94.3017H91.3017C91.3017 79.5257 92.6214 81.7042 94.4842 83.4468L96.5337 81.256ZM94.3017 76.936H97.3017C97.3017 76.7956 97.3235 76.7753 97.3031 76.8262C97.2933 76.8508 97.2773 76.8824 97.2543 76.9156C97.2313 76.9488 97.2088 76.9729 97.1929 76.9875L95.1657 74.776L93.1385 72.5645C91.8376 73.757 91.3017 75.337 91.3017 76.936H94.3017ZM95.1657 74.776L97.1035 77.0662C97.0217 77.1354 97.1135 76.984 97.7577 76.984V73.984V70.984C96.1938 70.984 94.5577 71.3606 93.2279 72.4858L95.1657 74.776ZM97.7577 73.984V76.984C98.1076 76.984 99.2381 77.238 101.479 78.3346L102.798 75.64L104.116 72.9453C101.845 71.834 99.6158 70.984 97.7577 70.984V73.984ZM102.798 75.64L101.526 78.3571C104.066 79.5462 106.592 80.224 109.062 80.224V77.224V74.224C107.692 74.224 106.041 73.8458 104.07 72.9229L102.798 75.64ZM109.062 77.224V80.224C110.531 80.224 112.074 80.0593 113.354 79.431C114.035 79.0964 114.734 78.5853 115.256 77.8158C115.793 77.0247 116.022 76.1404 116.022 75.28H113.022H110.022C110.022 75.0676 110.085 74.7503 110.292 74.4452C110.485 74.1617 110.688 74.0556 110.71 74.045C110.721 74.0396 110.612 74.0924 110.31 74.1419C110.016 74.19 109.607 74.224 109.062 74.224V77.224ZM113.022 75.28H116.022C116.022 73.7357 115.164 72.6353 114.313 71.9899C113.527 71.3936 112.586 71.0399 111.731 70.804L110.934 73.696L110.136 76.588C110.381 76.6555 110.545 76.716 110.646 76.7602C110.752 76.8062 110.749 76.8173 110.687 76.7701C110.623 76.7219 110.453 76.5787 110.296 76.3082C110.127 76.0163 110.022 75.6581 110.022 75.28H113.022ZM110.934 73.696L111.823 70.8308C110.362 70.3776 108.484 69.8594 106.204 69.2772L105.462 72.184L104.72 75.0908C106.952 75.6606 108.721 76.1504 110.044 76.5612L110.934 73.696ZM105.462 72.184L106.204 69.2772C104.131 68.7479 102.664 68.1304 101.684 67.5005L100.062 70.024L98.4394 72.5475C100.148 73.6456 102.281 74.4681 104.72 75.0908L105.462 72.184ZM100.062 70.024L101.251 67.2698C99.4567 66.495 98.5499 65.6846 98.1212 65.0177L95.5977 66.64L93.0742 68.2623C94.3735 70.2834 96.4427 71.729 98.8724 72.7782L100.062 70.024ZM95.5977 66.64L98.1858 65.1228C97.693 64.2822 97.3737 63.1515 97.3737 61.6H94.3737H91.3737C91.3737 63.9845 91.8704 66.2138 93.0096 68.1572L95.5977 66.64ZM94.3737 61.6H97.3737C97.3737 59.3898 98.3264 57.5304 100.79 55.8882L99.1257 53.392L97.4616 50.8958C93.589 53.4776 91.3737 57.0902 91.3737 61.6H94.3737ZM99.1257 53.392L100.798 55.8824C103.386 54.1442 106.905 53.152 111.582 53.152V50.152V47.152C106.082 47.152 101.297 48.3198 97.453 50.9016L99.1257 53.392ZM128.683 80.824L126.341 82.6981L126.348 82.707L126.355 82.7158L128.683 80.824ZM148.843 54.184L146.953 56.5134L149.784 58.8113L151.493 55.5901L148.843 54.184ZM161.083 52.384L159.209 54.7266L159.228 54.7415L159.247 54.7562L161.083 52.384ZM162.379 83.776L159.43 83.2282L159.427 83.2451L159.424 83.262L162.379 83.776ZM159.283 92.56L156.694 91.0453L156.683 91.0637L156.673 91.0822L159.283 92.56ZM153.235 98.248L151.934 95.545L151.924 95.5498L151.914 95.5546L153.235 98.248ZM131.347 96.376L129.452 98.7017L129.452 98.7017L131.347 96.376ZM128.035 88.168L130.326 90.1058L130.326 90.1058L128.035 88.168ZM134.587 89.104L133.159 91.7419L133.17 91.748L133.181 91.754L134.587 89.104ZM147.619 83.416H150.619V78.6364L146.315 80.7143L147.619 83.416ZM147.907 74.632L150.374 76.3396L150.912 75.562L150.907 74.6161L147.907 74.632ZM147.835 61.024L150.835 61.0081L150.831 60.1773L150.4 59.4671L147.835 61.024ZM142.435 60.376L140.02 58.5964L139.989 58.6386L139.959 58.6819L142.435 60.376ZM140.995 63.76L138.085 63.0324L138.073 63.0817L138.062 63.1314L140.995 63.76ZM141.643 73.984L138.874 75.1378L138.88 75.1518L138.886 75.1658L141.643 73.984ZM138.115 85.432V82.432C135.271 82.432 132.967 81.3386 131.012 78.9322L128.683 80.824L126.355 82.7158C129.392 86.4534 133.375 88.432 138.115 88.432V85.432ZM128.683 80.824L131.026 78.9499C129.086 76.5244 127.939 72.993 127.939 68.008H124.939H121.939C121.939 73.871 123.289 78.8836 126.341 82.6981L128.683 80.824ZM124.939 68.008H127.939C127.939 62.9626 129.068 59.3294 130.998 56.7931L128.611 54.976L126.224 53.1589C123.259 57.0546 121.939 62.1094 121.939 68.008H124.939ZM128.611 54.976L130.998 56.7931C132.914 54.2768 135.196 53.152 138.043 53.152V50.152V47.152C133.211 47.152 129.205 49.2432 126.224 53.1589L128.611 54.976ZM138.043 50.152V53.152C141.175 53.152 144.12 54.2143 146.953 56.5134L148.843 54.184L150.734 51.8546C146.943 48.7777 142.688 47.152 138.043 47.152V50.152ZM148.843 54.184L151.493 55.5901C151.884 54.8541 152.333 54.4178 152.813 54.1446C153.305 53.864 154.006 53.656 155.035 53.656V50.656V47.656C153.185 47.656 151.414 48.036 149.842 48.9314C148.258 49.8341 147.051 51.1619 146.193 52.7778L148.843 54.184ZM155.035 50.656V53.656C157.217 53.656 158.48 54.1433 159.209 54.7266L161.083 52.384L162.957 50.0414C160.807 48.3207 158.037 47.656 155.035 47.656V50.656ZM161.083 52.384L159.247 54.7562C159.658 55.0741 160.315 55.984 160.315 58.576H163.315H166.315C166.315 55.216 165.485 51.9979 162.92 50.0118L161.083 52.384ZM163.315 58.576H160.315V71.752H163.315H166.315V58.576H163.315ZM163.315 71.752H160.315C160.315 76.2853 160.011 80.1004 159.43 83.2282L162.379 83.776L165.329 84.3238C165.996 80.7316 166.315 76.5307 166.315 71.752H163.315ZM162.379 83.776L159.424 83.262C158.901 86.2703 157.978 88.8506 156.694 91.0453L159.283 92.56L161.873 94.0747C163.565 91.1814 164.706 87.9057 165.335 84.29L162.379 83.776ZM159.283 92.56L156.673 91.0822C155.529 93.1031 153.965 94.5669 151.934 95.545L153.235 98.248L154.537 100.951C157.689 99.4331 160.158 97.1049 161.894 94.0378L159.283 92.56ZM153.235 98.248L151.914 95.5546C149.892 96.5468 147.23 97.12 143.803 97.12V100.12V103.12C147.864 103.12 151.491 102.445 154.557 100.941L153.235 98.248ZM143.803 100.12V97.12C141.491 97.12 139.408 96.7992 137.533 96.1878L136.603 99.04L135.673 101.892C138.214 102.721 140.932 103.12 143.803 103.12V100.12ZM136.603 99.04L137.533 96.1878C135.55 95.541 134.164 94.8012 133.242 94.0503L131.347 96.376L129.452 98.7017C131.123 100.063 133.241 101.099 135.673 101.892L136.603 99.04ZM131.347 96.376L133.242 94.0503C132.106 93.1241 131.318 92.2746 130.802 91.518L128.323 93.208L125.845 94.898C126.769 96.2534 127.997 97.5159 129.452 98.7017L131.347 96.376ZM128.323 93.208L130.802 91.518C130.532 91.1218 130.382 90.8279 130.304 90.6305C130.226 90.4324 130.243 90.3905 130.243 90.472H127.243H124.243C124.243 92.1239 124.988 93.6421 125.845 94.898L128.323 93.208ZM127.243 90.472H130.243C130.243 90.1819 130.309 90.1248 130.326 90.1058L128.035 88.168L125.745 86.2302C124.705 87.4592 124.243 88.9381 124.243 90.472H127.243ZM128.035 88.168L130.326 90.1058C130.311 90.1225 130.286 90.1481 130.25 90.1748C130.213 90.2017 130.178 90.2207 130.15 90.2326C130.091 90.257 130.111 90.232 130.267 90.232V87.232V84.232C128.595 84.232 126.945 84.8124 125.745 86.2302L128.035 88.168ZM130.267 87.232V90.232C129.957 90.232 129.813 90.1649 129.974 90.2149C130.086 90.2493 130.283 90.3213 130.587 90.4527C131.191 90.7146 132.04 91.136 133.159 91.7419L134.587 89.104L136.016 86.4661C134.831 85.824 133.808 85.3094 132.972 84.9473C132.555 84.7667 132.141 84.6047 131.748 84.4831C131.406 84.3771 130.865 84.232 130.267 84.232V87.232ZM134.587 89.104L133.181 91.754C135.657 93.0677 138.086 93.976 140.275 93.976V90.976V87.976C139.585 87.976 138.222 87.6363 135.994 86.454L134.587 89.104ZM140.275 90.976V93.976C143.208 93.976 145.954 93.2161 147.935 91.1764C149.901 89.1527 150.619 86.377 150.619 83.416H147.619H144.619C144.619 85.495 144.114 86.4993 143.632 86.9956C143.165 87.4759 142.239 87.976 140.275 87.976V90.976ZM147.619 83.416L146.315 80.7143C143.994 81.8347 141.283 82.432 138.115 82.432V85.432V88.432C142.052 88.432 145.676 87.6853 148.924 86.1177L147.619 83.416ZM147.907 74.632L150.907 74.6161L150.835 61.0081L147.835 61.024L144.835 61.0399L144.907 74.6479L147.907 74.632ZM147.835 61.024L150.4 59.4671C149.202 57.495 147.315 56.008 144.739 56.008V59.008V62.008C144.76 62.008 144.773 62.0094 144.779 62.0102C144.782 62.0107 144.784 62.0111 144.785 62.0113C144.786 62.0114 144.786 62.0115 144.786 62.0115C144.787 62.0116 144.787 62.0116 144.787 62.0116C144.787 62.0116 144.787 62.0116 144.787 62.0116C144.787 62.0116 144.787 62.0116 144.787 62.0116C144.787 62.0118 144.786 62.0114 144.787 62.0116C144.787 62.0118 144.786 62.0114 144.787 62.0116C144.787 62.0118 144.786 62.0114 144.787 62.0116C144.787 62.0118 144.786 62.0114 144.787 62.0116C144.787 62.0116 144.787 62.0116 144.787 62.0116C144.787 62.0116 144.787 62.0116 144.787 62.0116C144.787 62.0116 144.787 62.0116 144.787 62.0116C144.787 62.0116 144.787 62.0117 144.787 62.0117C144.787 62.0117 144.788 62.012 144.789 62.0127C144.792 62.0139 144.8 62.0177 144.812 62.026C144.862 62.0583 145.034 62.1905 145.271 62.5809L147.835 61.024ZM144.739 59.008V56.008C142.638 56.008 141.065 57.1784 140.02 58.5964L142.435 60.376L144.851 62.1556C145.01 61.9392 145.087 61.9057 145.047 61.9296C145.025 61.9429 144.98 61.9651 144.917 61.9828C144.853 62.0007 144.791 62.008 144.739 62.008V59.008ZM142.435 60.376L139.959 58.6819C139.091 59.9517 138.486 61.4271 138.085 63.0324L140.995 63.76L143.906 64.4876C144.176 63.4049 144.532 62.6243 144.911 62.0701L142.435 60.376ZM140.995 63.76L138.062 63.1314C137.726 64.6982 137.563 66.3259 137.563 68.008H140.563H143.563C143.563 66.7141 143.689 65.5098 143.929 64.3886L140.995 63.76ZM140.563 68.008H137.563C137.563 70.5807 137.974 72.9774 138.874 75.1378L141.643 73.984L144.413 72.8302C143.873 71.5345 143.563 69.9473 143.563 68.008H140.563ZM141.643 73.984L138.886 75.1658C139.85 77.4158 141.682 79.504 144.667 79.504V76.504V73.504C144.674 73.504 144.717 73.5062 144.777 73.528C144.836 73.5496 144.865 73.5734 144.86 73.5693C144.834 73.5476 144.643 73.3683 144.401 72.8022L141.643 73.984ZM144.667 76.504V79.504C147.127 79.504 149.06 78.2377 150.374 76.3396L147.907 74.632L145.441 72.9244C145.027 73.5223 144.8 73.504 144.667 73.504V76.504Z" fill="black" mask="url(#path-3-outside-1_1_36)"/>
</g>
<path d="M29.6254 55.6881C28.6982 55.9366 28.1072 55.5856 27.8525 54.6351L24.0671 40.3687C23.9429 39.9051 24.0397 39.4319 24.3576 38.9492C24.6693 38.4433 25.0801 38.122 25.5901 37.9853C26.0306 37.8673 26.3893 37.9079 26.6663 38.107C26.9664 38.2998 27.1755 38.6165 27.2935 39.057L29.5558 47.9174L32.1941 37.5948C32.3033 37.168 32.5008 36.7921 32.7864 36.4671C33.0952 36.1359 33.435 35.9206 33.8059 35.8212C34.7101 35.5789 35.2855 35.872 35.5323 36.7003L38.1914 45.7898L40.4888 35.4468C40.5686 35.003 40.7514 34.6186 41.037 34.2936C41.3396 33.9392 41.6763 33.7123 42.0472 33.6129C42.4413 33.5073 42.8 33.5479 43.1234 33.7346C43.4405 33.8981 43.6487 34.1653 43.7481 34.5362C43.8227 34.8144 43.8169 35.1638 43.7308 35.5844L40.0163 51.4876C39.7656 52.499 39.2692 53.1041 38.5274 53.3029C38.1101 53.4147 37.7398 53.3772 37.4165 53.1906C37.1101 52.9745 36.877 52.6145 36.7172 52.1108L33.9494 43.3113L31.1237 53.9077C30.8435 54.9021 30.3441 55.4956 29.6254 55.6881ZM51.2942 49.8075C49.5787 50.2671 48.0472 50.0687 46.6996 49.2123C45.369 48.3265 44.4615 46.9795 43.977 45.1713C43.5049 43.4095 43.5343 41.5257 44.0653 39.5199C44.59 37.491 45.5031 35.7058 46.8045 34.1645C48.1059 32.6231 49.6028 31.6257 51.2951 31.1722C52.431 30.8679 53.5024 30.879 54.5092 31.2055C55.5098 31.5089 56.3693 32.0737 57.0876 32.8999C57.7997 33.703 58.3111 34.684 58.6217 35.8431C59.0938 37.605 59.0643 39.4888 58.5334 41.4946C58.0024 43.5003 57.0862 45.2739 55.7848 46.8153C54.4834 48.3566 52.9865 49.354 51.2942 49.8075ZM51.0909 46.5449C52.0877 46.2778 52.962 45.646 53.7137 44.6495C54.4592 43.6298 54.978 42.4597 55.2702 41.139C55.5623 39.8184 55.5593 38.6017 55.2611 37.489C54.9692 36.3994 54.4603 35.5668 53.7346 34.991C53.0088 34.4152 52.2055 34.2453 51.3246 34.4814C50.3277 34.7485 49.4597 35.4035 48.7204 36.4463C47.9811 37.4892 47.4716 38.6941 47.1919 40.0611C46.9291 41.3987 46.9499 42.6355 47.2543 43.7714C47.5338 44.8146 48.0187 45.604 48.7088 46.1396C49.3928 46.6521 50.1868 46.7872 51.0909 46.5449ZM63.4357 46.6287C62.5084 46.8772 61.9174 46.5262 61.6628 45.5757L57.8774 31.3093C57.7531 30.8457 57.85 30.3725 58.1679 29.8897C58.4795 29.3838 58.8904 29.0626 59.4004 28.9259C59.8409 28.8079 60.1996 28.8484 60.4765 29.0475C60.7767 29.2404 60.9858 29.5571 61.1038 29.9975L63.3661 38.8579L66.0043 28.5354C66.1136 28.1085 66.311 27.7326 66.5966 27.4076C66.9054 27.0764 67.2453 26.8611 67.6162 26.7617C68.5203 26.5195 69.0958 26.8125 69.3426 27.6409L72.0017 36.7304L74.299 26.3874C74.3789 25.9436 74.5616 25.5592 74.8472 25.2342C75.1498 24.8798 75.4866 24.6529 75.8575 24.5535C76.2516 24.4479 76.6103 24.4884 76.9336 24.6751C77.2508 24.8386 77.459 25.1058 77.5584 25.4767C77.6329 25.7549 77.6272 26.1043 77.5411 26.5249L73.8266 42.4282C73.5758 43.4396 73.0795 44.0446 72.3377 44.2434C71.9204 44.3552 71.5501 44.3178 71.2268 44.1311C70.9204 43.915 70.6873 43.5551 70.5275 43.0513L67.7597 34.2518L64.934 44.8483C64.6538 45.8427 64.1544 46.4361 63.4357 46.6287ZM80.9659 35.5956C80.5487 35.7074 80.1752 35.6584 79.8457 35.4485C79.5393 35.2325 79.3396 34.9506 79.2464 34.6028C79.2029 34.4405 79.1834 34.3215 79.188 34.2458L78.377 19.2569C78.3392 18.7453 78.4855 18.2713 78.8159 17.8349C79.1631 17.3691 79.557 17.0772 79.9975 16.9592C80.3916 16.8536 80.7503 16.8942 81.0736 17.0808C81.3908 17.2443 81.6021 17.5231 81.7077 17.9172C81.7574 18.1027 81.7831 18.2449 81.7847 18.3438L82.5958 33.3327C82.6041 33.8274 82.4578 34.3014 82.1569 34.7547C81.8497 35.1849 81.4528 35.4652 80.9659 35.5956ZM81.036 41.8382C80.5956 41.9562 80.199 41.9134 79.8462 41.7097C79.5105 41.4767 79.2867 41.1515 79.1749 40.7342C79.0134 40.1315 79.1301 39.4542 79.5249 38.7024C79.943 37.9444 80.4418 37.4877 81.0213 37.3324C81.4618 37.2144 81.8499 37.2719 82.1857 37.505C82.5446 37.7318 82.78 38.0538 82.8918 38.4711C83.0533 39.0739 82.9366 39.7511 82.5417 40.503C82.1407 41.2316 81.6388 41.6767 81.036 41.8382Z" fill="black"/>
<defs>
<filter id="filter0_dddd_1_36" x="0.620239" y="0.349098" width="111.642" height="79.4368" filterUnits="userSpaceOnUse" color-interpolation-filters="sRGB">
<feFlood flood-opacity="0" result="BackgroundImageFix"/>
<feColorMatrix in="SourceAlpha" type="matrix" values="0 0 0 0 0 0 0 0 0 0 0 0 0 0 0 0 0 0 127 0" result="hardAlpha"/>
<feOffset dx="2" dy="2"/>
<feComposite in2="hardAlpha" operator="out"/>
<feColorMatrix type="matrix" values="0 0 0 0 0 0 0 0 0 0 0 0 0 0 0 0 0 0 1 0"/>
<feBlend mode="normal" in2="BackgroundImageFix" result="effect1_dropShadow_1_36"/>
<feColorMatrix in="SourceAlpha" type="matrix" values="0 0 0 0 0 0 0 0 0 0 0 0 0 0 0 0 0 0 127 0" result="hardAlpha"/>
<feOffset dx="1" dy="1"/>
<feComposite in2="hardAlpha" operator="out"/>
<feColorMatrix type="matrix" values="0 0 0 0 0 0 0 0 0 0 0 0 0 0 0 0 0 0 1 0"/>
<feBlend mode="normal" in2="effect1_dropShadow_1_36" result="effect2_dropShadow_1_36"/>
<feColorMatrix in="SourceAlpha" type="matrix" values="0 0 0 0 0 0 0 0 0 0 0 0 0 0 0 0 0 0 127 0" result="hardAlpha"/>
<feOffset dx="3" dy="3"/>
<feComposite in2="hardAlpha" operator="out"/>
<feColorMatrix type="matrix" values="0 0 0 0 0 0 0 0 0 0 0 0 0 0 0 0 0 0 1 0"/>
<feBlend mode="normal" in2="effect2_dropShadow_1_36" result="effect3_dropShadow_1_36"/>
<feColorMatrix in="SourceAlpha" type="matrix" values="0 0 0 0 0 0 0 0 0 0 0 0 0 0 0 0 0 0 127 0" result="hardAlpha"/>
<feOffset dx="4" dy="4"/>
<feComposite in2="hardAlpha" operator="out"/>
<feColorMatrix type="matrix" values="0 0 0 0 0 0 0 0 0 0 0 0 0 0 0 0 0 0 1 0"/>
<feBlend mode="normal" in2="effect3_dropShadow_1_36" result="effect4_dropShadow_1_36"/>
<feBlend mode="normal" in="SourceGraphic" in2="effect4_dropShadow_1_36" result="shape"/>
</filter>
<filter id="filter1_dddd_1_36" x="60.952" y="47.152" width="109.363" height="59.968" filterUnits="userSpaceOnUse" color-interpolation-filters="sRGB">
<feFlood flood-opacity="0" result="BackgroundImageFix"/>
<feColorMatrix in="SourceAlpha" type="matrix" values="0 0 0 0 0 0 0 0 0 0 0 0 0 0 0 0 0 0 127 0" result="hardAlpha"/>
<feOffset dx="4" dy="4"/>
<feComposite in2="hardAlpha" operator="out"/>
<feColorMatrix type="matrix" values="0 0 0 0 0 0 0 0 0 0 0 0 0 0 0 0 0 0 1 0"/>
<feBlend mode="normal" in2="BackgroundImageFix" result="effect1_dropShadow_1_36"/>
<feColorMatrix in="SourceAlpha" type="matrix" values="0 0 0 0 0 0 0 0 0 0 0 0 0 0 0 0 0 0 127 0" result="hardAlpha"/>
<feOffset dx="3" dy="3"/>
<feComposite in2="hardAlpha" operator="out"/>
<feColorMatrix type="matrix" values="0 0 0 0 0 0 0 0 0 0 0 0 0 0 0 0 0 0 1 0"/>
<feBlend mode="normal" in2="effect1_dropShadow_1_36" result="effect2_dropShadow_1_36"/>
<feColorMatrix in="SourceAlpha" type="matrix" values="0 0 0 0 0 0 0 0 0 0 0 0 0 0 0 0 0 0 127 0" result="hardAlpha"/>
<feOffset dx="2" dy="2"/>
<feComposite in2="hardAlpha" operator="out"/>
<feColorMatrix type="matrix" values="0 0 0 0 0 0 0 0 0 0 0 0 0 0 0 0 0 0 1 0"/>
<feBlend mode="normal" in2="effect2_dropShadow_1_36" result="effect3_dropShadow_1_36"/>
<feColorMatrix in="SourceAlpha" type="matrix" values="0 0 0 0 0 0 0 0 0 0 0 0 0 0 0 0 0 0 127 0" result="hardAlpha"/>
<feOffset dx="1" dy="1"/>
<feComposite in2="hardAlpha" operator="out"/>
<feColorMatrix type="matrix" values="0 0 0 0 0 0 0 0 0 0 0 0 0 0 0 0 0 0 1 0"/>
<feBlend mode="normal" in2="effect3_dropShadow_1_36" result="effect4_dropShadow_1_36"/>
<feBlend mode="normal" in="SourceGraphic" in2="effect4_dropShadow_1_36" result="shape"/>
</filter>
</defs>
</svg>
